<svg xmlns="http://www.w3.org/2000/svg" viewBox="0 0 50 50" fill="none">
  <circle cx="25" cy="25" r="7" fill="#A55230"/>
  <ellipse cx="25" cy="11" rx="6" ry="9" fill="#DE7B5B" transform="rotate(0 25 25)"/>
  <ellipse cx="25" cy="11" rx="6" ry="9" fill="#DE7B5B" transform="rotate(45 25 25)"/>
  <ellipse cx="25" cy="11" rx="6" ry="9" fill="#DE7B5B" transform="rotate(90 25 25)"/>
  <ellipse cx="25" cy="11" rx="6" ry="9" fill="#DE7B5B" transform="rotate(135 25 25)"/>
  <ellipse cx="25" cy="11" rx="6" ry="9" fill="#DE7B5B" transform="rotate(180 25 25)"/>
  <ellipse cx="25" cy="11" rx="6" ry="9" fill="#DE7B5B" transform="rotate(225 25 25)"/>
  <ellipse cx="25" cy="11" rx="6" ry="9" fill="#DE7B5B" transform="rotate(270 25 25)"/>
  <ellipse cx="25" cy="11" rx="6" ry="9" fill="#DE7B5B" transform="rotate(315 25 25)"/>
  <circle cx="25" cy="25" r="7" fill="#A55230"/>
  <circle cx="23" cy="23" r="2" fill="#D4BB9D" opacity="0.6"/>
</svg>